<svg xmlns="http://www.w3.org/2000/svg" width="54" height="44" viewBox="0 0 54 44">
    <path fill="#000" fill-rule="nonzero" d="M10.355 0C8.358 0 6.75 1.677 6.75 3.667v21.045c-.13.11-.234.247-.307.4L.134 37.833a1.218 1.218 0 0 0-.134.534v2.941c0 .838.45 1.537 1.036 1.986A3.48 3.48 0 0 0 3.164 44h47.672a3.48 3.48 0 0 0 2.128-.707C53.55 42.844 54 42.145 54 41.307v-2.94a1.218 1.218 0 0 0-.134-.535l-6.31-12.72a1.226 1.226 0 0 0-.306-.381V3.667C47.25 1.677 45.642 0 43.645 0h-33.29zm0 2.444h33.29c.637 0 1.15.504 1.15 1.223v20.777H9.205V3.667c0-.72.513-1.223 1.15-1.223zm4.219 2.426a1.23 1.23 0 0 0-.71.363l-1.84 1.833a1.22 1.22 0 0 0 0 1.738l1.84 1.833a1.23 1.23 0 0 0 2.07-.55A1.22 1.22 0 0 0 15.59 8.9l-.978-.955.978-.974c.39-.365.498-.94.266-1.421a1.229 1.229 0 0 0-1.282-.68zm4.334 3.686c-.439.02-.833.272-1.035.66a1.22 1.22 0 0 0 .058 1.223 1.23 1.23 0 0 0 1.092.561h4.909c.442.006.854-.225 1.077-.606.223-.38.223-.852 0-1.232a1.228 1.228 0 0 0-1.077-.606h-4.91a1.232 1.232 0 0 0-.114 0zM8.303 26.889h37.394l4.851 9.778H3.452l4.851-9.778zm29.014 1.833c-.439.02-.833.272-1.035.66a1.22 1.22 0 0 0 .058 1.223 1.23 1.23 0 0 0 1.092.562h6.136c.443.006.854-.226 1.078-.606.223-.381.223-.852 0-1.233a1.228 1.228 0 0 0-1.078-.606h-6.136a1.233 1.233 0 0 0-.115 0zM2.455 39.112h49.09v2.176a1.027 1.027 0 0 1-.71.267H3.166c-.283 0-.498-.101-.615-.19-.058-.045-.086-.066-.095-.077v-2.177z"/>
</svg>
