<svg width="161" height="61" viewBox="0 0 161 61" fill="none" xmlns="http://www.w3.org/2000/svg">
<path d="M117.355 16C115.358 16 113.75 17.677 113.75 19.667V40.712C113.62 40.822 113.516 40.959 113.443 41.112L107.134 53.833C107.049 53.9984 107.003 54.1811 107 54.367V57.308C107 58.146 107.45 58.845 108.036 59.294C108.648 59.7576 109.396 60.0059 110.164 60H157.836C158.604 60.0056 159.352 59.757 159.964 59.293C160.55 58.844 161 58.145 161 57.307V54.367C160.997 54.1808 160.951 53.9977 160.866 53.832L154.556 41.112C154.481 40.9658 154.377 40.8362 154.25 40.731V19.667C154.25 17.677 152.642 16 150.645 16H117.355ZM117.355 18.444H150.645C151.282 18.444 151.795 18.948 151.795 19.667V40.444H116.205V19.667C116.205 18.947 116.718 18.444 117.355 18.444ZM121.574 20.87C121.304 20.9088 121.054 21.0365 120.864 21.233L119.024 23.066C118.909 23.1795 118.817 23.3148 118.755 23.464C118.692 23.6132 118.66 23.7733 118.66 23.935C118.66 24.0967 118.692 24.2568 118.755 24.406C118.817 24.5552 118.909 24.6905 119.024 24.804L120.864 26.637C121.016 26.7928 121.207 26.9054 121.417 26.9632C121.627 27.021 121.849 27.022 122.059 26.966C122.27 26.9101 122.462 26.7992 122.616 26.6448C122.769 26.4903 122.879 26.2978 122.934 26.087C122.988 25.8764 122.984 25.6554 122.923 25.4467C122.863 25.238 122.748 25.0493 122.59 24.9L121.612 23.945L122.59 22.971C122.98 22.606 123.088 22.031 122.856 21.55C122.742 21.3153 122.557 21.1228 122.326 21.0006C122.096 20.8783 121.832 20.8326 121.574 20.87ZM125.908 24.556C125.469 24.576 125.075 24.828 124.873 25.216C124.774 25.4069 124.727 25.6205 124.737 25.8353C124.748 26.0501 124.814 26.2583 124.931 26.439C125.048 26.62 125.21 26.767 125.402 26.8655C125.594 26.9639 125.808 27.0103 126.023 27H130.932C131.374 27.006 131.786 26.775 132.009 26.394C132.232 26.014 132.232 25.542 132.009 25.162C131.899 24.9748 131.741 24.8201 131.552 24.7137C131.363 24.6072 131.149 24.5528 130.932 24.556H126.022C125.984 24.5542 125.946 24.5542 125.908 24.556ZM115.303 42.889H152.697L157.548 52.667H110.452L115.303 42.889ZM144.317 44.722C143.878 44.742 143.484 44.994 143.282 45.382C143.183 45.5729 143.136 45.7865 143.146 46.0013C143.157 46.2161 143.223 46.4243 143.34 46.605C143.457 46.7861 143.619 46.9334 143.811 47.032C144.002 47.1307 144.217 47.1772 144.432 47.167H150.568C151.011 47.173 151.422 46.941 151.646 46.561C151.869 46.18 151.869 45.709 151.646 45.328C151.536 45.1407 151.378 44.9859 151.189 44.8794C150.999 44.7729 150.785 44.7186 150.568 44.722H144.432C144.394 44.7202 144.355 44.7202 144.317 44.722ZM109.455 55.112H158.545V57.288C158.351 57.4643 158.097 57.5599 157.835 57.555H110.166C109.883 57.555 109.668 57.454 109.551 57.365C109.493 57.32 109.465 57.299 109.456 57.288V55.111L109.455 55.112Z" fill="black"/>
<path d="M93.5 36H71.5C70.6716 36 70 36.6716 70 37.5C70 38.3284 70.6716 39 71.5 39H93.5C94.3284 39 95 38.3284 95 37.5C95 36.6716 94.3284 36 93.5 36Z" fill="#131515"/>
<path d="M84 48.5V26.5C84 25.6716 83.3284 25 82.5 25C81.6716 25 81 25.6716 81 26.5V48.5C81 49.3284 81.6716 50 82.5 50C83.3284 50 84 49.3284 84 48.5Z" fill="#131515"/>
<path d="M53.75 52.865H52.5V51.615C52.5 50.925 51.94 50.365 51.25 50.365H47.5V37.865H48.75C49.7442 37.8637 50.6972 37.4682 51.4002 36.7652C52.1032 36.0622 52.4987 35.1092 52.5 34.115C52.4987 33.1208 52.1032 32.1678 51.4002 31.4648C50.6972 30.7618 49.7442 30.3663 48.75 30.365H47.437C46.87 21.83 40.59 14.843 32.382 13.225C32.233 12.624 31.9375 12.0693 31.5219 11.6103C31.1062 11.1514 30.5833 10.8026 30 10.595V7.865H36.25C36.4976 7.86544 36.7397 7.79237 36.9456 7.65505C37.1516 7.51773 37.3122 7.32234 37.407 7.09366C37.5018 6.86497 37.5265 6.61329 37.4781 6.37052C37.4297 6.12775 37.3103 5.90482 37.135 5.73L35.52 4.115L37.135 2.5C37.3404 2.49963 37.5425 2.44865 37.7236 2.35157C37.9046 2.25449 38.0589 2.1143 38.1728 1.9434C38.2868 1.77249 38.3568 1.57615 38.3768 1.37172C38.3968 1.1673 38.3661 0.96109 38.2875 0.771344C38.2088 0.581598 38.0846 0.414157 37.9259 0.283833C37.7671 0.153508 37.5787 0.0643143 37.3772 0.0241411C37.1758 -0.016032 36.9676 -0.00594702 36.771 0.0535042C36.5744 0.112955 36.3954 0.219941 36.25 0.364998H28.75C28.06 0.364998 27.5 0.924998 27.5 1.615V10.595C26.9167 10.8026 26.3938 11.1514 25.9781 11.6103C25.5625 12.0693 25.267 12.624 25.118 13.225C16.91 14.843 10.63 21.83 10.063 30.365H8.75C7.75584 30.3663 6.80279 30.7618 6.09981 31.4648C5.39684 32.1678 5.00132 33.1208 5 34.115C5.00132 35.1092 5.39684 36.0622 6.09981 36.7652C6.80279 37.4682 7.75584 37.8637 8.75 37.865H10V50.365H6.25C5.56 50.365 5 50.925 5 51.615V52.865H3.75C2.75584 52.8663 1.80279 53.2618 1.09981 53.9648C0.396836 54.6678 0.0013229 55.6208 0 56.615V59.115C0 59.805 0.56 60.365 1.25 60.365H56.25C56.94 60.365 57.5 59.805 57.5 59.115V56.615C57.4987 55.6208 57.1032 54.6678 56.4002 53.9648C55.6972 53.2618 54.7442 52.8663 53.75 52.865ZM30 2.867H33.232L32.868 3.233C32.6338 3.46739 32.5023 3.78517 32.5023 4.1165C32.5023 4.44783 32.6338 4.76561 32.868 5L33.232 5.365H30V2.867ZM28.75 15.365C37.29 15.365 44.313 21.985 44.952 30.365H12.548C13.188 21.985 20.21 15.365 28.75 15.365ZM8.75 35.365C8.06 35.365 7.5 34.802 7.5 34.115C7.5 33.427 8.06 32.865 8.75 32.865H48.75C49.44 32.865 50 33.428 50 34.115C50 34.803 49.44 35.365 48.75 35.365H8.75ZM45 37.865V50.365H42.5V37.865H45ZM40 37.865V50.365H37.5V37.865H40ZM35 37.865V50.365H32.5V37.865H35ZM30 37.865V50.365H27.5V37.865H30ZM25 37.865V50.365H22.5V37.865H25ZM20 37.865V50.365H17.5V37.865H20ZM15 37.865V50.365H12.5V37.865H15ZM55 57.865H2.5V56.615C2.5 55.927 3.06 55.365 3.75 55.365H6.25C6.94 55.365 7.5 54.805 7.5 54.115V52.865H50V54.115C50 54.805 50.56 55.365 51.25 55.365H53.75C54.44 55.365 55 55.928 55 56.615V57.865Z" fill="black"/>
</svg>
