<svg width="194" height="50" viewBox="0 0 194 50" fill="none" xmlns="http://www.w3.org/2000/svg">
<g clip-path="url(#clip0)">
<path fill-rule="evenodd" clip-rule="evenodd" d="M25 46.2956C36.7617 46.2956 46.2956 36.7617 46.2956 25C46.2956 13.2382 36.7617 3.70444 25 3.70444C13.2382 3.70444 3.70443 13.2382 3.70443 25C3.70443 36.7617 13.2382 46.2956 25 46.2956ZM25 50C11.1926 50 0 38.8074 0 25C0 11.1926 11.1926 0 25 0C38.8073 0 50 11.1926 50 25C50 38.8074 38.8073 50 25 50Z" fill="#131515"/>
<path d="M16.988 36V12.456H24.512C25.736 12.456 26.852 12.564 27.86 12.78C28.892 12.972 29.78 13.296 30.524 13.752C31.292 14.184 31.88 14.772 32.288 15.516C32.72 16.26 32.936 17.172 32.936 18.252C32.936 19.38 32.648 20.424 32.072 21.384C31.496 22.344 30.692 23.004 29.66 23.364V23.508C30.956 23.796 32.024 24.408 32.864 25.344C33.728 26.256 34.16 27.504 34.16 29.088C34.16 30.264 33.932 31.284 33.476 32.148C33.02 33.012 32.384 33.732 31.568 34.308C30.776 34.884 29.828 35.316 28.724 35.604C27.62 35.868 26.42 36 25.124 36H16.988ZM21.164 22.176H24.152C25.808 22.176 26.996 21.876 27.716 21.276C28.46 20.676 28.832 19.872 28.832 18.864C28.832 17.712 28.448 16.896 27.68 16.416C26.912 15.936 25.76 15.696 24.224 15.696H21.164V22.176ZM21.164 32.76H24.692C26.42 32.76 27.752 32.448 28.688 31.824C29.624 31.176 30.092 30.192 30.092 28.872C30.092 27.624 29.636 26.724 28.724 26.172C27.812 25.596 26.468 25.308 24.692 25.308H21.164V32.76Z" fill="#131515"/>
</g>
<path d="M68.5415 35.336C67.3468 35.336 66.2548 35.1213 65.2655 34.692C64.2761 34.244 63.4268 33.6093 62.7175 32.788C62.0081 31.948 61.4575 30.94 61.0655 29.764C60.6735 28.588 60.4775 27.2533 60.4775 25.76C60.4775 24.2853 60.6735 22.9693 61.0655 21.812C61.4575 20.636 62.0081 19.6467 62.7175 18.844C63.4268 18.0413 64.2761 17.4253 65.2655 16.996C66.2548 16.5667 67.3468 16.352 68.5415 16.352C69.7361 16.352 70.8281 16.5667 71.8175 16.996C72.8068 17.4253 73.6561 18.0413 74.3655 18.844C75.0935 19.6467 75.6535 20.636 76.0455 21.812C76.4375 22.9693 76.6335 24.2853 76.6335 25.76C76.6335 27.2533 76.4375 28.588 76.0455 29.764C75.6535 30.94 75.0935 31.948 74.3655 32.788C73.6561 33.6093 72.8068 34.244 71.8175 34.692C70.8281 35.1213 69.7361 35.336 68.5415 35.336ZM68.5415 32.508C69.2695 32.508 69.9228 32.3493 70.5015 32.032C71.0801 31.7147 71.5748 31.2667 71.9855 30.688C72.3961 30.0907 72.7135 29.3813 72.9375 28.56C73.1615 27.72 73.2735 26.7867 73.2735 25.76C73.2735 23.7067 72.8441 22.1013 71.9855 20.944C71.1455 19.768 69.9975 19.18 68.5415 19.18C67.0855 19.18 65.9281 19.768 65.0695 20.944C64.2295 22.1013 63.8095 23.7067 63.8095 25.76C63.8095 26.7867 63.9215 27.72 64.1455 28.56C64.3695 29.3813 64.6868 30.0907 65.0975 30.688C65.5081 31.2667 66.0028 31.7147 66.5815 32.032C67.1601 32.3493 67.8135 32.508 68.5415 32.508ZM80.0167 40.432V21.252H82.6767L82.9007 22.708H83.0127C83.5913 22.2227 84.2353 21.8027 84.9447 21.448C85.654 21.0933 86.3913 20.916 87.1567 20.916C88.0153 20.916 88.7713 21.084 89.4247 21.42C90.0967 21.7373 90.666 22.204 91.1327 22.82C91.5993 23.436 91.954 24.1733 92.1967 25.032C92.4393 25.8907 92.5607 26.852 92.5607 27.916C92.5607 29.092 92.3927 30.1467 92.0567 31.08C91.7393 31.9947 91.31 32.7693 90.7687 33.404C90.2273 34.02 89.602 34.496 88.8927 34.832C88.1833 35.168 87.446 35.336 86.6807 35.336C86.0833 35.336 85.486 35.2053 84.8887 34.944C84.2913 34.6827 83.7127 34.3093 83.1527 33.824L83.2367 36.12V40.432H80.0167ZM86.0087 32.676C86.9233 32.676 87.6887 32.284 88.3047 31.5C88.9207 30.6973 89.2287 29.512 89.2287 27.944C89.2287 26.5627 88.9953 25.4893 88.5287 24.724C88.062 23.9587 87.306 23.576 86.2607 23.576C85.29 23.576 84.282 24.0893 83.2367 25.116V31.528C83.7407 31.9573 84.226 32.256 84.6927 32.424C85.1593 32.592 85.598 32.676 86.0087 32.676ZM101.701 35.336C100.749 35.336 99.8627 35.1773 99.0413 34.86C98.22 34.524 97.5013 34.048 96.8853 33.432C96.2693 32.816 95.784 32.0693 95.4293 31.192C95.0933 30.296 94.9253 29.2787 94.9253 28.14C94.9253 27.02 95.1027 26.012 95.4573 25.116C95.812 24.22 96.2787 23.464 96.8573 22.848C97.4547 22.232 98.136 21.756 98.9013 21.42C99.6667 21.084 100.451 20.916 101.253 20.916C102.187 20.916 103.008 21.0747 103.717 21.392C104.427 21.7093 105.015 22.1573 105.481 22.736C105.967 23.3147 106.331 24.0053 106.573 24.808C106.816 25.6107 106.937 26.488 106.937 27.44C106.937 27.7573 106.919 28.056 106.881 28.336C106.863 28.616 106.835 28.84 106.797 29.008H98.0613C98.2107 30.24 98.64 31.192 99.3493 31.864C100.077 32.5173 101.001 32.844 102.121 32.844C102.719 32.844 103.269 32.76 103.773 32.592C104.296 32.4053 104.809 32.1533 105.313 31.836L106.405 33.852C105.752 34.2813 105.024 34.636 104.221 34.916C103.419 35.196 102.579 35.336 101.701 35.336ZM98.0333 26.824H104.137C104.137 25.76 103.904 24.9293 103.437 24.332C102.989 23.716 102.289 23.408 101.337 23.408C100.516 23.408 99.7973 23.6973 99.1813 24.276C98.5653 24.8547 98.1827 25.704 98.0333 26.824ZM110.013 35V21.252H112.673L112.897 23.1H113.009C113.625 22.5027 114.287 21.9893 114.997 21.56C115.725 21.1307 116.565 20.916 117.517 20.916C118.991 20.916 120.065 21.392 120.737 22.344C121.409 23.2773 121.745 24.6213 121.745 26.376V35H118.525V26.796C118.525 25.6573 118.357 24.8547 118.021 24.388C117.685 23.9213 117.134 23.688 116.369 23.688C115.771 23.688 115.239 23.8373 114.773 24.136C114.325 24.416 113.811 24.836 113.233 25.396V35H110.013ZM131.566 35V16.688H137.418C138.37 16.688 139.238 16.772 140.022 16.94C140.825 17.0893 141.516 17.3413 142.094 17.696C142.692 18.032 143.149 18.4893 143.466 19.068C143.802 19.6467 143.97 20.356 143.97 21.196C143.97 22.0733 143.746 22.8853 143.298 23.632C142.85 24.3787 142.225 24.892 141.422 25.172V25.284C142.43 25.508 143.261 25.984 143.914 26.712C144.586 27.4213 144.922 28.392 144.922 29.624C144.922 30.5387 144.745 31.332 144.39 32.004C144.036 32.676 143.541 33.236 142.906 33.684C142.29 34.132 141.553 34.468 140.694 34.692C139.836 34.8973 138.902 35 137.894 35H131.566ZM134.814 24.248H137.138C138.426 24.248 139.35 24.0147 139.91 23.548C140.489 23.0813 140.778 22.456 140.778 21.672C140.778 20.776 140.48 20.1413 139.882 19.768C139.285 19.3947 138.389 19.208 137.194 19.208H134.814V24.248ZM134.814 32.48H137.558C138.902 32.48 139.938 32.2373 140.666 31.752C141.394 31.248 141.758 30.4827 141.758 29.456C141.758 28.4853 141.404 27.7853 140.694 27.356C139.985 26.908 138.94 26.684 137.558 26.684H134.814V32.48ZM153.621 35.336C152.763 35.336 151.941 35.1773 151.157 34.86C150.373 34.5427 149.673 34.076 149.057 33.46C148.46 32.844 147.984 32.088 147.629 31.192C147.275 30.296 147.097 29.2787 147.097 28.14C147.097 27.0013 147.275 25.984 147.629 25.088C147.984 24.192 148.46 23.436 149.057 22.82C149.673 22.204 150.373 21.7373 151.157 21.42C151.941 21.084 152.763 20.916 153.621 20.916C154.48 20.916 155.301 21.084 156.085 21.42C156.888 21.7373 157.588 22.204 158.185 22.82C158.783 23.436 159.259 24.192 159.613 25.088C159.987 25.984 160.173 27.0013 160.173 28.14C160.173 29.2787 159.987 30.296 159.613 31.192C159.259 32.088 158.783 32.844 158.185 33.46C157.588 34.076 156.888 34.5427 156.085 34.86C155.301 35.1773 154.48 35.336 153.621 35.336ZM153.621 32.704C154.629 32.704 155.423 32.2933 156.001 31.472C156.58 30.632 156.869 29.5213 156.869 28.14C156.869 26.74 156.58 25.6293 156.001 24.808C155.423 23.968 154.629 23.548 153.621 23.548C152.613 23.548 151.82 23.968 151.241 24.808C150.681 25.6293 150.401 26.74 150.401 28.14C150.401 29.5213 150.681 30.632 151.241 31.472C151.82 32.2933 152.613 32.704 153.621 32.704ZM163.36 35V21.252H166.58V35H163.36ZM164.984 18.844C164.406 18.844 163.93 18.676 163.556 18.34C163.183 18.004 162.996 17.5653 162.996 17.024C162.996 16.4827 163.183 16.044 163.556 15.708C163.93 15.3533 164.406 15.176 164.984 15.176C165.563 15.176 166.039 15.3533 166.412 15.708C166.786 16.044 166.972 16.4827 166.972 17.024C166.972 17.5653 166.786 18.004 166.412 18.34C166.039 18.676 165.563 18.844 164.984 18.844ZM174.525 35.336C173.573 35.336 172.63 35.1587 171.697 34.804C170.782 34.4307 169.989 33.9733 169.317 33.432L170.829 31.36C171.445 31.8453 172.051 32.228 172.649 32.508C173.265 32.7693 173.927 32.9 174.637 32.9C175.383 32.9 175.934 32.7507 176.289 32.452C176.643 32.1347 176.821 31.7333 176.821 31.248C176.821 30.968 176.737 30.7253 176.569 30.52C176.401 30.296 176.177 30.1 175.897 29.932C175.617 29.764 175.299 29.6147 174.945 29.484C174.59 29.3347 174.235 29.1853 173.881 29.036C173.433 28.868 172.975 28.672 172.509 28.448C172.042 28.224 171.622 27.9533 171.249 27.636C170.894 27.3187 170.595 26.9547 170.353 26.544C170.129 26.1147 170.017 25.6107 170.017 25.032C170.017 23.8187 170.465 22.8293 171.361 22.064C172.257 21.2987 173.479 20.916 175.029 20.916C175.981 20.916 176.839 21.084 177.605 21.42C178.37 21.756 179.033 22.1387 179.593 22.568L178.109 24.528C177.623 24.1733 177.129 23.8933 176.625 23.688C176.139 23.464 175.626 23.352 175.085 23.352C174.394 23.352 173.881 23.5013 173.545 23.8C173.227 24.08 173.069 24.4347 173.069 24.864C173.069 25.144 173.143 25.3867 173.293 25.592C173.461 25.7787 173.675 25.9467 173.937 26.096C174.198 26.2453 174.497 26.3853 174.833 26.516C175.187 26.6467 175.551 26.7773 175.925 26.908C176.391 27.076 176.858 27.272 177.325 27.496C177.791 27.7013 178.211 27.9627 178.585 28.28C178.977 28.5973 179.285 28.9893 179.509 29.456C179.751 29.904 179.873 30.4453 179.873 31.08C179.873 31.6773 179.751 32.2373 179.509 32.76C179.285 33.264 178.949 33.712 178.501 34.104C178.053 34.4773 177.493 34.776 176.821 35C176.149 35.224 175.383 35.336 174.525 35.336ZM188.627 35.336C187.675 35.336 186.788 35.1773 185.967 34.86C185.146 34.524 184.427 34.048 183.811 33.432C183.195 32.816 182.71 32.0693 182.355 31.192C182.019 30.296 181.851 29.2787 181.851 28.14C181.851 27.02 182.028 26.012 182.383 25.116C182.738 24.22 183.204 23.464 183.783 22.848C184.38 22.232 185.062 21.756 185.827 21.42C186.592 21.084 187.376 20.916 188.179 20.916C189.112 20.916 189.934 21.0747 190.643 21.392C191.352 21.7093 191.94 22.1573 192.407 22.736C192.892 23.3147 193.256 24.0053 193.499 24.808C193.742 25.6107 193.863 26.488 193.863 27.44C193.863 27.7573 193.844 28.056 193.807 28.336C193.788 28.616 193.76 28.84 193.723 29.008H184.987C185.136 30.24 185.566 31.192 186.275 31.864C187.003 32.5173 187.927 32.844 189.047 32.844C189.644 32.844 190.195 32.76 190.699 32.592C191.222 32.4053 191.735 32.1533 192.239 31.836L193.331 33.852C192.678 34.2813 191.95 34.636 191.147 34.916C190.344 35.196 189.504 35.336 188.627 35.336ZM184.959 26.824H191.063C191.063 25.76 190.83 24.9293 190.363 24.332C189.915 23.716 189.215 23.408 188.263 23.408C187.442 23.408 186.723 23.6973 186.107 24.276C185.491 24.8547 185.108 25.704 184.959 26.824Z" fill="black"/>
<defs>
<clipPath id="clip0">
<rect width="50" height="50" fill="white"/>
</clipPath>
</defs>
</svg>
