<svg xmlns="http://www.w3.org/2000/svg" width="58" height="60" viewBox="0 0 58 60">
    <path fill="#000" fill-rule="nonzero" d="M54.25 52.5H53v-1.25c0-.69-.56-1.25-1.25-1.25H48V37.5h1.25A3.755 3.755 0 0 0 53 33.75 3.755 3.755 0 0 0 49.25 30h-1.313c-.567-8.535-6.847-15.522-15.055-17.14a3.749 3.749 0 0 0-2.382-2.63V7.5h6.25a1.25 1.25 0 0 0 .885-2.135L36.02 3.75l1.615-1.615A1.25 1.25 0 1 0 36.75 0h-7.5C28.56 0 28 .56 28 1.25v8.98a3.749 3.749 0 0 0-2.382 2.63C17.41 14.478 11.13 21.465 10.563 30H9.25a3.755 3.755 0 0 0-3.75 3.75 3.755 3.755 0 0 0 3.75 3.75h1.25V50H6.75c-.69 0-1.25.56-1.25 1.25v1.25H4.25A3.755 3.755 0 0 0 .5 56.25v2.5c0 .69.56 1.25 1.25 1.25h55c.69 0 1.25-.56 1.25-1.25v-2.5a3.755 3.755 0 0 0-3.75-3.75zM30.5 2.502h3.232l-.364.366a1.25 1.25 0 0 0 0 1.767l.364.365H30.5V2.502zM29.25 15c8.54 0 15.563 6.62 16.202 15H13.048c.64-8.38 7.662-15 16.202-15zm-20 20C8.56 35 8 34.437 8 33.75c0-.688.56-1.25 1.25-1.25h40c.69 0 1.25.563 1.25 1.25 0 .688-.56 1.25-1.25 1.25h-40zm36.25 2.5V50H43V37.5h2.5zm-5 0V50H38V37.5h2.5zm-5 0V50H33V37.5h2.5zm-5 0V50H28V37.5h2.5zm-5 0V50H23V37.5h2.5zm-5 0V50H18V37.5h2.5zm-5 0V50H13V37.5h2.5zm40 20H3v-1.25c0-.688.56-1.25 1.25-1.25h2.5C7.44 55 8 54.44 8 53.75V52.5h42.5v1.25c0 .69.56 1.25 1.25 1.25h2.5c.69 0 1.25.563 1.25 1.25v1.25z"/>
</svg>
