<svg xmlns="http://www.w3.org/2000/svg" width="20" height="20" viewBox="0 0 20 20">
    <path fill="#131515" fill-rule="nonzero" d="M1.643 9.42c.039.24 0 .44-.116.64-.117.2-.31.32-.543.36a.71.71 0 0 1-.62-.16.78.78 0 0 1-.35-.56c-.038-.24 0-.44.117-.64.155-.2.31-.32.543-.36a.84.84 0 0 1 .62.12c.194.16.31.36.35.6zm15.045 1.44c.504.84.66 1.761.465 2.722-.194.96-.659 1.76-1.473 2.32-.66.48-1.357.68-2.172.68-.155.601-.465 1.081-.93 1.401-.465.36-.97.52-1.551.48-.582 0-1.086-.24-1.512-.64-.078.08-.117.12-.156.12-.736.52-1.55.72-2.442.56-.892-.16-1.59-.64-2.094-1.4a3.804 3.804 0 0 1-.582-1.84c-.582-.12-1.124-.36-1.55-.801-.427-.44-.738-.88-.854-1.44-.155-.52-.155-1.081-.039-1.681.155-.6.427-1.12.892-1.561-.271-.44-.388-.92-.426-1.44 0-.52.077-.961.27-1.401.195-.44.466-.8.854-1.08.388-.32.814-.481 1.318-.561.233-.64.582-1.2 1.086-1.64.465-.48 1.008-.801 1.59-1.041.582-.24 1.163-.28 1.822-.2.66.08 1.202.32 1.745.76.504-.16 1.008-.24 1.512-.2.505.04.97.16 1.396.4.427.24.815.52 1.125.88.31.36.543.8.737 1.281.155.52.232 1.04.194 1.56.387.12.697.32.93.641.272.32.427.64.504 1 .078.36.039.72-.077 1.12-.078.441-.272.761-.582 1.001zM3.582 15.943c.077.04.155.16.155.24.039.12 0 .2-.039.32-.039.08-.155.16-.232.16-.117.04-.194 0-.272-.04-.077-.04-.155-.16-.155-.24-.039-.12 0-.2.039-.32.039-.08.155-.16.232-.16a.233.233 0 0 1 .272.04zm.97-12.446c.116.16.116.32.116.48a.659.659 0 0 1-.272.44c-.155.12-.31.12-.465.12-.194-.04-.31-.12-.388-.28-.116-.16-.116-.32-.116-.48.039-.2.116-.32.271-.44.155-.12.31-.12.466-.12.155.04.271.12.387.28zm9.5 10.285c-.04-.16-.117-.32-.31-.36a1.206 1.206 0 0 0-.544-.12c-.194 0-.349-.04-.543-.12-.194-.08-.271-.24-.271-.44-.039-.361.077-.881.349-1.561l.814-2.041c.272-.68.388-1.12.35-1.441-.117-.76-.505-1.12-1.28-1.16-.31 0-.582.04-.815.16l-.038.04c-.04 0-.04.04-.04.04s-.038 0-.038.04c-.039 0-.039 0-.039.04H11.531s-.039-.04-.078-.04c-.038 0-.038-.04-.077-.04s-.039-.04-.117-.08l-.116-.12-.077-.08c-.04-.04-.078-.08-.117-.08-.039 0-.077-.04-.116-.08-.039-.04-.078-.04-.116-.04-.04 0-.078-.04-.117-.04-.232-.04-.387-.04-.504.04-.116.08-.31.16-.504.36 0 0-.039.04-.116.08-.078.04-.117.08-.117.12a.537.537 0 0 1-.155.12c-.077.04-.116.08-.194.08-.038 0-.116 0-.193-.04-.388-.2-.698-.36-.892-.44-.31-.12-.62-.12-1.008.04s-.66.4-.815.72c-.116.2-.271.56-.426 1.08-.194.52-.35 1-.466 1.481-.116.48-.271.96-.426 1.48-.155.52-.233.8-.233.8-.155.521-.077.961.194 1.322.272.36.698.56 1.202.52.233 0 .388-.08.543-.16.155-.08.271-.28.427-.52.038-.08.349-.84.853-2.242.504-1.4.814-2.12.814-2.16a.4.4 0 0 1 .233-.2c.116-.04.232-.04.31 0 .194.12.271.32.232.6 0 .12-.193.64-.542 1.56-.35.92-.543 1.401-.543 1.481-.039.28.039.48.194.64.193.12.387.16.659.08.271-.08.465-.28.581-.56.04-.04.194-.4.505-1.04.31-.64.581-1.24.891-1.841.31-.6.466-.92.504-1 .156-.2.31-.32.427-.32.194 0 .31.16.271.44 0 .12-.232.68-.698 1.64-.465.96-.698 1.56-.775 1.801-.078.4-.039.76.155 1.16.194.36.465.64.814.84.117.08.31.12.543.16.233.04.504.08.776.08.271 0 .504-.04.659-.16.233-.08.31-.28.271-.52zM6.256.376c.04.12 0 .24-.038.36a.45.45 0 0 1-.272.2c-.116.04-.232 0-.349-.08-.116-.08-.194-.16-.194-.28-.038-.12 0-.24.078-.36a.45.45 0 0 1 .271-.2c.117-.04.233 0 .35.08.077.04.116.16.154.28zm3.645 18.768c.078.12.117.28.078.4a.584.584 0 0 1-.233.36c-.116.08-.271.12-.388.08a.564.564 0 0 1-.349-.24c-.077-.12-.116-.28-.077-.4a.584.584 0 0 1 .233-.36c.116-.08.271-.12.387-.08.117.04.272.08.35.24zM11.92.976c.116.2.155.4.077.64-.077.24-.194.4-.388.52a.68.68 0 0 1-.62.08c-.233-.04-.388-.2-.504-.4-.116-.2-.155-.44-.078-.64.04-.24.194-.4.388-.52s.388-.16.62-.12c.194.12.388.24.505.44zm3.567 16.647c.155.2.194.44.155.68a.955.955 0 0 1-.349.6.791.791 0 0 1-.66.16.753.753 0 0 1-.542-.36.857.857 0 0 1-.155-.68.955.955 0 0 1 .349-.6c.194-.16.426-.2.66-.16a.94.94 0 0 1 .542.36zM17.89 5.618c.116.16.155.36.116.56-.038.2-.116.36-.271.48-.155.12-.349.16-.543.12a.637.637 0 0 1-.465-.32.712.712 0 0 1-.117-.56c.04-.2.117-.36.31-.48a.657.657 0 0 1 .544-.12c.193.04.349.16.426.32zm1.202 5.322c.039.16 0 .28-.077.4a.564.564 0 0 1-.35.24.44.44 0 0 1-.387-.08.584.584 0 0 1-.233-.36c-.039-.16 0-.28.078-.4.077-.12.194-.2.349-.24a.44.44 0 0 1 .387.08c.117.12.194.24.233.36zm.892-2.64c.039.12 0 .2-.039.32-.039.08-.155.16-.232.2-.117.04-.194 0-.31-.08-.078-.08-.156-.16-.156-.24-.039-.12 0-.2.039-.32.039-.08.155-.16.233-.16.116-.04.194 0 .271.04.116.04.155.12.194.24z"/>
</svg>
