<svg xmlns="http://www.w3.org/2000/svg" width="19" height="18" viewBox="0 0 19 18">
    <g fill="#131515" fill-rule="nonzero">
        <path d="M8.478 10.836L7.72 8.611l2.351-.774.758 2.225z"/>
        <path d="M17.316 6.977C15.496 1.05 12.891-.339 6.834 1.42.81 3.21-.604 5.773 1.185 11.731c1.82 5.928 4.425 7.317 10.482 5.557 6.057-1.79 7.47-4.384 5.65-10.31zm-3.044 3.859l-1.13.37.408 1.174a.905.905 0 0 1-.564 1.142c-.095.03-.22.062-.314.062a.903.903 0 0 1-.848-.618l-.439-1.173-2.354.772.408 1.173a.905.905 0 0 1-.565 1.142c-.094.031-.22.062-.314.062a.903.903 0 0 1-.847-.618l-.408-1.173-1.13.37c-.094.032-.22.063-.314.063a.905.905 0 0 1-.282-1.76l1.13-.37-.753-2.223-1.13.37c-.094.031-.22.062-.314.062a.905.905 0 0 1-.282-1.76l1.13-.37L4.95 6.36a.905.905 0 0 1 .565-1.143c.471-.154 1.005.093 1.161.556l.408 1.173 2.354-.772-.345-1.173a.905.905 0 0 1 .565-1.142c.47-.154 1.004.093 1.161.556l.408 1.173 1.13-.37c.47-.155 1.004.092 1.161.555a.905.905 0 0 1-.565 1.142l-1.161.37.753 2.224 1.13-.37c.47-.155 1.004.092 1.161.555a.905.905 0 0 1-.565 1.142z"/>
    </g>
</svg>
